<?xml version="1.0" standalone="no"?>
<!DOCTYPE svg PUBLIC "-//W3C//DTD SVG 20010904//EN"
 "http://www.w3.org/TR/2001/REC-SVG-20010904/DTD/svg10.dtd">
<svg version="1.0" xmlns="http://www.w3.org/2000/svg"
 width="260.000000pt" height="260.000000pt" viewBox="0 0 260.000000 260.000000"
 preserveAspectRatio="xMidYMid meet">
<metadata>
Created by potrace 1.14, written by Peter Selinger 2001-2017
</metadata>
<g transform="translate(0.000000,260.000000) scale(0.100000,-0.100000)"
fill="#000000" stroke="none">
<path d="M936 2541 c-8 -12 10 -37 64 -88 14 -13 53 -37 88 -53 34 -16 62 -32
62 -35 0 -3 -16 -21 -36 -39 -38 -35 -55 -88 -49 -153 2 -29 -1 -33 -47 -52
-27 -11 -67 -35 -89 -52 -30 -24 -43 -29 -52 -20 -6 6 -21 11 -32 11 -32 0
-64 41 -150 195 -30 53 -103 147 -120 154 -5 2 -24 19 -41 38 -17 18 -34 33
-39 33 -5 0 -17 7 -27 17 -17 15 -18 15 -18 0 0 -10 5 -17 10 -17 6 0 10 -7
10 -15 0 -9 14 -24 30 -33 17 -9 32 -24 35 -33 3 -9 24 -31 46 -48 22 -18 38
-35 35 -38 -10 -10 26 -88 68 -147 24 -33 71 -87 104 -118 l61 -58 -32 -61
c-27 -53 -31 -71 -30 -133 1 -71 0 -72 -33 -94 -19 -12 -44 -38 -56 -57 -13
-20 -34 -38 -48 -41 -159 -35 -306 -94 -358 -142 -27 -26 -30 -26 -68 -14 -21
7 -53 15 -70 17 -17 3 -44 11 -60 19 -17 10 -32 12 -38 6 -5 -5 -16 -5 -27 0
-11 6 -20 6 -24 1 -3 -5 5 -13 17 -17 12 -3 28 -13 36 -20 7 -8 24 -14 36 -14
13 0 39 -6 57 -14 36 -15 107 -28 149 -27 14 0 92 34 173 76 82 41 153 75 158
75 5 0 -1 -24 -12 -52 -85 -211 -122 -513 -85 -688 l14 -65 -32 -36 c-55 -65
-119 -298 -112 -413 l3 -56 -56 -16 c-31 -9 -69 -24 -86 -34 -16 -10 -40 -16
-52 -14 -15 2 -26 -3 -33 -16 -6 -11 -20 -20 -31 -20 -11 0 -18 -4 -15 -9 9
-13 78 -6 113 12 18 10 39 17 48 17 27 0 170 81 177 100 4 10 9 56 13 102 5
74 17 178 31 263 6 36 32 78 43 70 5 -2 12 -17 16 -32 4 -16 24 -63 45 -106
110 -222 307 -412 505 -486 80 -31 227 -38 304 -15 224 65 470 303 573 556 18
43 35 78 40 78 17 0 29 -42 43 -145 3 -22 7 -53 10 -70 2 -16 7 -70 11 -120 5
-82 26 -147 41 -131 3 3 25 -6 49 -20 91 -53 245 -96 260 -73 3 5 -4 9 -15 9
-11 0 -25 9 -31 19 -6 12 -18 18 -29 16 -11 -2 -34 5 -53 14 -18 10 -58 25
-88 34 l-55 16 -1 83 c0 123 -58 326 -110 387 l-24 29 16 94 c33 189 -10 497
-97 685 -10 24 -19 47 -19 51 0 9 106 -14 272 -59 78 -21 90 -22 125 -10 81
30 213 98 213 110 0 5 9 13 21 16 16 5 18 10 10 18 -9 9 -14 9 -20 -1 -5 -8
-17 -12 -27 -10 -11 1 -33 -7 -48 -20 -16 -12 -35 -22 -43 -22 -7 0 -32 -12
-54 -26 l-41 -26 -58 26 c-46 21 -226 59 -259 54 -3 0 -33 0 -66 1 -57 1 -62
3 -79 32 -10 17 -33 40 -51 50 -32 19 -33 22 -36 97 -3 58 -10 90 -31 131
l-27 54 26 34 c14 18 29 33 34 33 5 0 34 30 65 68 58 69 104 149 104 178 0 19
83 113 117 132 13 7 23 19 23 27 0 8 8 18 17 24 10 5 14 13 10 17 -4 4 -13 2
-19 -4 -7 -7 -18 -12 -24 -12 -15 0 -132 -117 -163 -162 -12 -18 -50 -80 -84
-137 -34 -58 -69 -108 -77 -111 -63 -29 -79 -29 -117 2 -21 17 -59 40 -85 51
l-48 20 0 60 c0 64 -25 121 -59 132 -34 10 -18 34 46 66 56 28 153 111 153
131 0 23 -23 13 -43 -19 -31 -49 -51 -66 -112 -97 -87 -43 -107 -48 -216 -48
-99 -1 -111 1 -174 30 -37 18 -71 32 -75 32 -8 0 -63 61 -91 101 -11 17 -18
19 -23 10z"/>
</g>
</svg>
